<svg xmlns="http://www.w3.org/2000/svg" xmlns:xlink="http://www.w3.org/1999/xlink" width="123.5" height="91" viewBox="0 0 123.5 91">
  <defs>
    <linearGradient id="linear-gradient" x1="1.691" y1="2.174" x2="-0.004" y2="-1.087" gradientUnits="objectBoundingBox">
      <stop offset="0" stop-color="#0299fe"/>
      <stop offset="1" stop-color="#bdc5e3"/>
    </linearGradient>
    <linearGradient id="linear-gradient-3" x1="0.806" y1="0.229" x2="0" y2="1" gradientUnits="objectBoundingBox">
      <stop offset="0" stop-color="#c966d3"/>
      <stop offset="0.498" stop-color="#c0a9de"/>
      <stop offset="1" stop-color="#bdc5e3"/>
    </linearGradient>
    <linearGradient id="linear-gradient-4" x1="0.805" y1="0.172" x2="0" y2="0.9" gradientUnits="objectBoundingBox">
      <stop offset="0" stop-color="#28e0a3"/>
      <stop offset="1" stop-color="#bdc5e3"/>
    </linearGradient>
  </defs>
  <g id="Group_397" data-name="Group 397" transform="translate(-308 -3661.5)">
    <rect id="Rectangle_477" data-name="Rectangle 477" width="107" height="62" transform="translate(316.25 3682.5)" opacity="0.41" fill="url(#linear-gradient)"/>
    <rect id="Rectangle_478" data-name="Rectangle 478" width="123.5" height="8" transform="translate(308 3744.5)" opacity="0.65" fill="url(#linear-gradient)"/>
    <path id="Rectangle_479" data-name="Rectangle 479" d="M26,0h1A26,26,0,0,1,53,26V42a0,0,0,0,1,0,0H0a0,0,0,0,1,0,0V26A26,26,0,0,1,26,0Z" transform="translate(342.5 3702.5)" opacity="0.92" fill="url(#linear-gradient-3)"/>
    <circle id="Ellipse_150" data-name="Ellipse 150" cx="18" cy="18" r="18" transform="translate(350.5 3661.5)" fill="url(#linear-gradient-4)"/>
  </g>
</svg>
