<?xml version="1.0" encoding="utf-8"?>
<!-- Generator: Adobe Illustrator 27.0.0, SVG Export Plug-In . SVG Version: 6.00 Build 0)  -->
<svg version="1.1" id="Layer_2_00000143581052782481311370000006893209676446371767_"
	 xmlns="http://www.w3.org/2000/svg" xmlns:xlink="http://www.w3.org/1999/xlink" x="0px" y="0px" viewBox="0 0 452.2 51"
	 style="enable-background:new 0 0 452.2 51;" xml:space="preserve">
<style type="text/css">
	.st0{enable-background:new    ;}
</style>
<g id="Layer_1-2">
	<g class="st0">
		<path d="M1.8,40.6v-0.8c5.3,0,5.9-0.3,5.9-3V11.5c0-2.7-0.6-3-5.9-3V7.7h17.7v0.8c-5.4,0-6,0.4-6,3.2v24c0,2.9,1,3.9,4.1,3.9h5.7
			c6.7,0,9.7-3.2,12-10.5H36l-1.3,11.5H1.8z"/>
	</g>
	<g class="st0">
		<path d="M39.4,29.2c0-7.4,6-12,13.8-12S67,21.8,67,29.2c0,7.4-6,12-13.8,12S39.4,36.6,39.4,29.2z M60.8,29.8c0-6-2.4-11.8-8-11.8
			c-3.8,0-7.2,3.1-7.2,10.6c0,6,2.3,11.8,8,11.8C57.4,40.4,60.8,37.2,60.8,29.8z"/>
	</g>
	<g class="st0">
		<path d="M100.2,28.8c0,7.8-5,12.5-12.9,12.5c-3.4,0-6.1-0.8-8.1-2.4v7.8c0,2.5,0.8,3,7.1,3v0.8H69.7v-0.8c3.9,0,4.4-0.5,4.4-3
			V23.4c0-3.5-0.6-3.9-4.4-3.4v-0.6l9.1-2h0.3v5.4c2.1-3.5,5.2-5.7,9.7-5.7C95.6,17.1,100.2,21.5,100.2,28.8z M95,30.3
			c0-6.4-3.4-9.7-8.7-9.7c-3,0-5.4,0.9-7.2,2.7v7.4c0,6.7,3,9.8,7.6,9.8C92,40.5,95,36.8,95,30.3z"/>
		<path d="M109.1,26.2c0,0.4,0,0.8,0,1.3c0,5.9,3.5,9,9,9c4,0,7.1-1.6,8.7-4.4l0.4,0.1c-1.4,5.9-4.8,9.1-10.6,9.1
			c-7.1,0-11.9-4.6-11.9-11.8c0-7.3,4.7-12.4,12.3-12.4c6.7,0,10.6,3.5,10.5,9.1H109.1z M109.1,25.4h13c0-4.8-1.7-7.5-5.8-7.5
			C112.2,17.9,109.6,20.4,109.1,25.4z"/>
		<path d="M155.4,31.2l-0.4,9.4h-23.2v-4.6l20.4-13.6h-15.4c-3.8,0-4.6,0.6-4.9,3.4h-0.6v-8.1h22.8v4.6l-20.4,13.6h15.7
			c4,0,4.9-1.1,5.4-4.7H155.4z"/>
	</g>
	<g class="st0">
		<path d="M201,7.7h16.2l-0.2,0.7c-4.9,0-5.6,1.2-6.7,5l-6.6,22.9c-0.1,0.4-0.2,0.8-0.2,1.2c0,1.5,0.8,2.3,4.9,2.3l-0.2,0.7H192
			l0.2-0.7c4.7,0,5.7-0.5,6.8-4.2l3.4-11.9h-18.4l-3.4,12c-0.2,0.8-0.5,1.7-0.5,2.2c0,1.4,1.2,1.9,5.4,1.9l-0.2,0.7h-16.4l0.2-0.7
			c4.5,0,5.5-0.5,6.6-4.2l6.7-23.3c0.2-0.7,0.3-1.3,0.3-1.7c0-1.9-1.3-2.2-5.1-2.2l0.2-0.7h16.4l-0.2,0.7c-5.7,0-5.9,0.8-6.8,4.1
			l-3,10.5h18.4l2.5-8.7c0.8-2.7,0.9-3.2,0.9-3.7c0-1.9-1.3-2.2-5.3-2.2L201,7.7z"/>
	</g>
	<g class="st0">
		<path d="M219,29.2c-0.1,0.6-0.1,1.2-0.1,1.8c0,4.4,2.6,6.5,6.2,6.5c2.8,0,5.3-1.2,8.3-4.2l0.4,0.2c-2.4,4.1-5.3,7.7-10.7,7.7
			c-5.1,0-8.5-3.1-8.5-8.2c0-7.5,7.1-15.9,16.6-15.9c3.8,0,7,1.4,7,4.5C238.2,26.2,231.3,29.4,219,29.2z M219.1,28.7
			c9.2-0.3,13.6-3.6,13.6-7.9c0-2.3-1.2-3-2.9-3C225.4,17.8,220.2,22.8,219.1,28.7z"/>
		<path d="M242.6,40.6l4.6-15.5c0.4-1.4,0.6-2.6,0.6-3.4c0-1.3-0.5-1.8-1.5-1.8c-1.9,0-3.5,1.6-5.9,4.9l-0.6-0.2
			c2.3-3.9,5.1-7.4,8.9-7.4c2.3,0,3.5,1.2,3.5,3.4c0,2.1-1.1,5.4-3.9,12.7h0.5c3.2-6.6,6.2-10.8,8.6-13.3c2-2,3.5-2.8,5.3-2.8
			c1.9,0,4.1,1,4.1,3.5c0,2.2-1.6,3.9-3.7,3.9c-0.9,0-1.9-0.4-2.3-1c-0.5-0.7-0.9-2.3-1.7-3.4c-4.2,3.6-8,9.7-12.7,20.4H242.6z"/>
		<path d="M285.9,37.8c0-1.4,0.5-2.8,1.4-4.4l3.5-6.4c0.5-1,1.4-2.7,1.4-4.2c0-1.6-1.1-2.3-2.4-2.3c-6.4,0-12.3,11-15.9,20.1h-3.9
			l4.6-15.5c0.4-1.4,0.6-2.6,0.6-3.4c0-1.3-0.5-1.8-1.5-1.8c-1.9,0-3.5,1.6-5.9,4.9l-0.6-0.2c2.1-3.6,5.1-7.4,8.7-7.4
			c2.4,0,3.7,1.2,3.7,3.2c0,2.1-0.6,4.1-3.9,12.9h0.5c4.1-8,8.9-16.1,14.7-16.1c3.1,0,5.6,1.5,5.6,4.5c0,2.2-1,4.1-2,5.8l-3.3,5.8
			c-0.8,1.4-1.2,2.6-1.2,3.4c0,1.1,0.7,1.5,2,1.5c1.8,0,3.6-1.6,5.9-4.9l0.5,0.2c-2,3.6-5,7.4-8.8,7.4C287.9,41,285.9,40,285.9,37.8
			z"/>
		<path d="M328.9,33.5c-2.1,4-5,7.4-8.2,7.4c-2.3,0-3.3-1.3-3.3-3.3c0-2.2,1.6-5.3,5.3-11.9h-0.5c-5.6,8.8-9.9,15.5-15.4,15.5
			c-3.4,0-5.6-2.1-5.6-5.5c0-7,10.5-18.1,18.4-18.1c1.3,0,2.9,0.2,4.1,1l0.7-1.9h4.2l-6.5,18.1c-0.7,2.2-0.6,3.4,1.1,3.4
			c1.3,0,2.9-1.6,5.1-4.8L328.9,33.5z M323,23c-1.8-2.6-4.3-3.6-5.9-4.1c-4.1,0.5-11.3,9.4-11.3,15c0,2,1.3,3.2,2.9,3.2
			C312.3,37.1,316,33.9,323,23z"/>
		<path d="M350.5,37.8c0-1.4,0.5-2.8,1.4-4.4l3.5-6.4c0.5-1,1.4-2.7,1.4-4.2c0-1.6-1.1-2.3-2.4-2.3c-6.4,0-12.3,11-15.9,20.1h-3.9
			l4.6-15.5c0.4-1.4,0.6-2.6,0.6-3.4c0-1.3-0.5-1.8-1.5-1.8c-1.9,0-3.5,1.6-5.9,4.9l-0.6-0.2c2.1-3.6,5.1-7.4,8.7-7.4
			c2.4,0,3.7,1.2,3.7,3.2c0,2.1-0.6,4.1-3.9,12.9h0.5c4.1-8,8.9-16.1,14.7-16.1c3.1,0,5.6,1.5,5.6,4.5c0,2.2-1,4.1-2,5.8l-3.3,5.8
			c-0.8,1.4-1.2,2.6-1.2,3.4c0,1.1,0.7,1.5,2,1.5c1.8,0,3.6-1.6,5.9-4.9l0.5,0.2c-2,3.6-5,7.4-8.8,7.4C352.4,41,350.5,40,350.5,37.8
			z"/>
		<path d="M392.9,33.3l0.6,0.2c-2.1,4-5,7.4-8.2,7.4c-2.3,0-3.3-1.3-3.3-3.3c0-2.2,1.7-5.3,5.5-11.9h-0.7
			c-5.6,8.8-9.9,15.5-15.4,15.5c-3.4,0-5.6-2.1-5.6-5.5c0-7,10.5-18.1,18.4-18.1c1.4,0,3,0.3,4.2,1l2.7-7.2c1.3-3.5-0.3-3.5-2.9-3.4
			l-3.1,0.1l0.1-0.4l11.3-1.4h0.3l-10.2,28.5c-0.8,2.2-0.6,3.4,1.1,3.4C389.1,38.2,390.7,36.5,392.9,33.3z M387.6,23
			c-1.8-2.6-4.3-3.6-5.9-4.1c-4.1,0.5-11.3,9.4-11.3,15c0,2,1.3,3.2,2.9,3.2C376.9,37.1,380.6,33.9,387.6,23z"/>
		<path d="M400.9,29.2c-0.1,0.6-0.1,1.2-0.1,1.8c0,4.4,2.6,6.5,6.2,6.5c2.8,0,5.3-1.2,8.3-4.2l0.4,0.2c-2.4,4.1-5.3,7.7-10.7,7.7
			c-5.1,0-8.5-3.1-8.5-8.2c0-7.5,7.1-15.9,16.6-15.9c3.8,0,7,1.4,7,4.5C420.1,26.2,413.2,29.4,400.9,29.2z M401,28.7
			c9.2-0.3,13.6-3.6,13.6-7.9c0-2.3-1.2-3-2.9-3C407.3,17.8,402.2,22.8,401,28.7z"/>
		<path d="M448.4,33.1c0,3.2-2.5,8.2-9.1,8.2c-6,0-8.3-4.2-14.4-4.2c0.5,0.6,0.6,1.2,0.6,1.6c0,1.5-1.1,2.6-2.8,2.6
			c-1.6,0-3-1-3-2.7c0-0.3,0-0.8,0.1-1.2L444.4,22l-0.2-0.2c-6.9,3.9-10.6-2.1-14.6-2.1c-2.2,0-3.5,1.8-4.2,3.9c1.9,0.5,4,0,5.2,0
			c1.1,0,1.8,0.4,1.8,1.9c0,2.1-1.4,3.3-3.6,3.3c-2.6,0-4.2-1.8-4.2-4.1c0-2.9,2.4-7.5,9.3-7.5c3.2,0,7.1,1,11.1,3.5l5.1-4.3l2.2,2
			l-27.9,17.4l0.2,0.4c10.1-5.5,14.2,2.8,18.3,2.8c3,0,4.2-2.6,4.9-4.6c-2-0.4-3.9,0-5.1,0c-1.1,0-1.9-0.4-1.9-2
			c0-2,1.2-3.4,3.5-3.4C446.4,28.9,448.4,30.2,448.4,33.1z"/>
	</g>
</g>
</svg>
